<?xml version="1.0" encoding="utf-8"?>
<!-- Generator: Adobe Illustrator 18.0.0, SVG Export Plug-In . SVG Version: 6.00 Build 0)  -->
<!DOCTYPE svg PUBLIC "-//W3C//DTD SVG 1.1//EN" "http://www.w3.org/Graphics/SVG/1.1/DTD/svg11.dtd" [
	<!ENTITY ns_flows "http://ns.adobe.com/Flows/1.0/">
	<!ENTITY ns_extend "http://ns.adobe.com/Extensibility/1.0/">
	<!ENTITY ns_ai "http://ns.adobe.com/AdobeIllustrator/10.0/">
	<!ENTITY ns_graphs "http://ns.adobe.com/Graphs/1.0/">
]>
<svg version="1.1" id="Layer_1" xmlns:x="&ns_extend;" xmlns:i="&ns_ai;" xmlns:graph="&ns_graphs;"
	 xmlns="http://www.w3.org/2000/svg" xmlns:xlink="http://www.w3.org/1999/xlink" xmlns:a="http://ns.adobe.com/AdobeSVGViewerExtensions/3.0/"
	 x="0px" y="0px" viewBox="0 0 2272 1872" enable-background="new 0 0 2272 1872" xml:space="preserve">
<g>
	<rect fill="#c3d0de" width="2272" height="1872"/>
	<g>
		<g>
			<g>
				<g>
					<g>
						<path fill="#1e3a5f" d="M755.4,500.9H275.7c-13.2,0-24,10.7-24,24v0c0,4.4,3.6,8,8,8h511.7c4.4,0,8-3.6,8-8v0
							C779.4,511.6,768.7,500.9,755.4,500.9z"/>
						<path fill="#1e3a5f" d="M755.4,554.8H275.7c-13.2,0-24,10.7-24,24v0c0,4.4,3.6,8,8,8h511.7c4.4,0,8-3.6,8-8v0
							C779.4,565.6,768.7,554.8,755.4,554.8z"/>
						<path fill="#1e3a5f" d="M755.4,608.8H275.7c-13.2,0-24,10.7-24,24v0c0,4.4,3.6,8,8,8h511.7c4.4,0,8-3.6,8-8v0
							C779.4,619.5,768.7,608.8,755.4,608.8z"/>
						<path fill="#1e3a5f" d="M755.4,662.8H275.7c-13.2,0-24,10.7-24,24v0c0,4.4,3.6,8,8,8h511.7c4.4,0,8-3.6,8-8v0
							C779.4,673.5,768.7,662.8,755.4,662.8z"/>
						<path fill="#1e3a5f" d="M755.4,716.7H275.7c-13.2,0-24,10.7-24,24v0c0,4.4,3.6,8,8,8h511.7c4.4,0,8-3.6,8-8v0
							C779.4,727.5,768.7,716.7,755.4,716.7z"/>
						<path fill="#1e3a5f" d="M755.4,770.7H275.7c-13.2,0-24,10.7-24,24v0c0,4.4,3.6,8,8,8h511.7c4.4,0,8-3.6,8-8v0
							C779.4,781.5,768.7,770.7,755.4,770.7z"/>
					</g>
					<g>
						<rect x="315.7" y="486.2" fill="#1e3a5f" width="2.7" height="313"/>
						<rect x="712.8" y="486.2" fill="#1e3a5f" width="2.7" height="313"/>
					</g>
					<path fill="#1e3a5f" d="M724.5,948v92.3c0,5.7,4.6,10.3,10.3,10.3s10.3-4.6,10.3-10.3V948H724.5z"/>
					<g>
						<rect x="219.7" y="477.5" fill="#1e3a5f" width="591.7" height="10.7"/>
						<rect x="219.7" y="474.9" fill="#1e3a5f" width="36" height="16"/>
						<rect x="775.4" y="474.9" fill="#1e3a5f" width="36" height="16"/>
					</g>
					<rect x="732.2" y="482.9" fill="#1e3a5f" width="5.1" height="489.1"/>
				</g>
				<g>
					<g>
						<path fill="#1e3a5f" d="M1375.9,500.9H896.1c-13.2,0-24,10.7-24,24v0c0,4.4,3.6,8,8,8h511.7c4.4,0,8-3.6,8-8v0
							C1399.9,511.6,1389.1,500.9,1375.9,500.9z"/>
						<path fill="#1e3a5f" d="M1375.9,554.8H896.1c-13.2,0-24,10.7-24,24v0c0,4.4,3.6,8,8,8h511.7c4.4,0,8-3.6,8-8v0
							C1399.9,565.6,1389.1,554.8,1375.9,554.8z"/>
						<path fill="#1e3a5f" d="M1375.9,608.8H896.1c-13.2,0-24,10.7-24,24v0c0,4.4,3.6,8,8,8h511.7c4.4,0,8-3.6,8-8v0
							C1399.9,619.5,1389.1,608.8,1375.9,608.8z"/>
						<path fill="#1e3a5f" d="M1375.9,662.8H896.1c-13.2,0-24,10.7-24,24v0c0,4.4,3.6,8,8,8h511.7c4.4,0,8-3.6,8-8v0
							C1399.9,673.5,1389.1,662.8,1375.9,662.8z"/>
						<path fill="#1e3a5f" d="M1375.9,716.7H896.1c-13.2,0-24,10.7-24,24v0c0,4.4,3.6,8,8,8h511.7c4.4,0,8-3.6,8-8v0
							C1399.9,727.5,1389.1,716.7,1375.9,716.7z"/>
						<path fill="#1e3a5f" d="M1375.9,770.7H896.1c-13.2,0-24,10.7-24,24v0c0,4.4,3.6,8,8,8h511.7c4.4,0,8-3.6,8-8v0
							C1399.9,781.5,1389.1,770.7,1375.9,770.7z"/>
						<path fill="#1e3a5f" d="M1375.9,824.7H896.1c-13.2,0-24,10.7-24,24v0c0,4.4,3.6,8,8,8h511.7c4.4,0,8-3.6,8-8v0
							C1399.9,835.4,1389.1,824.7,1375.9,824.7z"/>
					</g>
					<g>
						<rect x="936.1" y="486.2" fill="#1e3a5f" width="2.7" height="354.5"/>
						<rect x="1333.2" y="486.2" fill="#1e3a5f" width="2.7" height="354.5"/>
					</g>
					<path fill="#1e3a5f" d="M1344.9,948v92.3c0,5.7,4.6,10.3,10.3,10.3c5.7,0,10.3-4.6,10.3-10.3V948H1344.9z"/>
					<g>
						<rect x="840.2" y="477.5" fill="#1e3a5f" width="591.7" height="10.7"/>
						<rect x="840.2" y="474.9" fill="#1e3a5f" width="36" height="16"/>
						<rect x="1395.9" y="474.9" fill="#1e3a5f" width="36" height="16"/>
					</g>
					<rect x="1352.7" y="482.9" fill="#1e3a5f" width="5.1" height="489.1"/>
				</g>
				<g>
					<g>
						<path fill="#1e3a5f" d="M1996.3,500.9h-479.7c-13.2,0-24,10.7-24,24v0c0,4.4,3.6,8,8,8h511.7c4.4,0,8-3.6,8-8v0
							C2020.3,511.6,2009.6,500.9,1996.3,500.9z"/>
						<path fill="#1e3a5f" d="M1996.3,554.8h-479.7c-13.2,0-24,10.7-24,24v0c0,4.4,3.6,8,8,8h511.7c4.4,0,8-3.6,8-8v0
							C2020.3,565.6,2009.6,554.8,1996.3,554.8z"/>
						<path fill="#1e3a5f" d="M1996.3,608.8h-479.7c-13.2,0-24,10.7-24,24v0c0,4.4,3.6,8,8,8h511.7c4.4,0,8-3.6,8-8v0
							C2020.3,619.5,2009.6,608.8,1996.3,608.8z"/>
						<path fill="#1e3a5f" d="M1996.3,662.8h-479.7c-13.2,0-24,10.7-24,24v0c0,4.4,3.6,8,8,8h511.7c4.4,0,8-3.6,8-8v0
							C2020.3,673.5,2009.6,662.8,1996.3,662.8z"/>
						<path fill="#1e3a5f" d="M1996.3,716.7h-479.7c-13.2,0-24,10.7-24,24v0c0,4.4,3.6,8,8,8h511.7c4.4,0,8-3.6,8-8v0
							C2020.3,727.5,2009.6,716.7,1996.3,716.7z"/>
					</g>
					<g>
						<rect x="1556.5" y="486.2" fill="#1e3a5f" width="2.7" height="249.6"/>
						<rect x="1953.7" y="486.2" fill="#1e3a5f" width="2.7" height="249.6"/>
					</g>
					<path fill="#1e3a5f" d="M1965.3,948v92.3c0,5.7,4.6,10.3,10.3,10.3c5.7,0,10.3-4.6,10.3-10.3V948H1965.3z"/>
					<g>
						<rect x="1460.6" y="477.5" fill="#1e3a5f" width="591.7" height="10.7"/>
						<rect x="1460.6" y="474.9" fill="#1e3a5f" width="36" height="16"/>
						<rect x="2016.3" y="474.9" fill="#1e3a5f" width="36" height="16"/>
					</g>
					<rect x="1973.1" y="482.9" fill="#1e3a5f" width="5.1" height="489.1"/>
				</g>
			</g>
		</g>
		<ellipse opacity="0.55" fill="#c3d0de"  a:adobe-blending-mode="multiply" cx="1207" cy="1612.3" rx="661.9" ry="39.5"/>
		<rect x="1075.5" y="787.8" fill="#043854" width="22" height="383.5"/>
		<rect x="1330.2" y="787.8" fill="#043854" width="22" height="383.5"/>
		<rect x="1059.4" y="812.7" fill="#043854" width="310.3" height="137.6"/>
		<path fill="#C02530" d="M1355.1,879.3c0,38.4-31.1,69.5-69.5,69.5h-144.9c-38.4,0-69.5-31.1-69.5-69.5l0,0
			c0-38.4,31.1-69.5,69.5-69.5h144.9C1323.9,809.8,1355.1,840.9,1355.1,879.3L1355.1,879.3z"/>
		<g>
			<g>
				<rect x="1055" y="1032.3" fill="#043854" width="20.5" height="543.1"/>
				<rect x="1375.6" y="1032.3" fill="#043854" width="20.5" height="543.1"/>
			</g>
		</g>
		<path fill="#122341" d="M1111.1,970.6c0,0-102.7,75.2-123.5,102.7c-20.9,27.4-13.7,59.3,31.3,54.9s38.4-25.3,38.4-25.3l64.2-45
			L1111.1,970.6z"/>
		<path fill="#122341" d="M1191,916.6c0,0-74.7,45.4-87.1,60c-12.4,14.6,0,172,0,172h226.2c0,0-0.7-149.3,0-167.6
			c0.7-18.3-111.3-68.1-111.3-68.1L1191,916.6z"/>
		<path fill="#E6B35D" d="M1254.8,1101.1c0,0-33.7-8.1-53.4-3.7c-19.8,4.4-22.7,13.2-13.9,22.7s71,9.5,71,9.5L1254.8,1101.1z"/>
		<path fill="#f8f6f1" d="M1270.9,1098.9c0,0-12.4-5.9-19.8-1.5s-1.5,25.6-1.5,25.6l14.6,5.9
			C1264.3,1128.9,1276,1132.6,1270.9,1098.9z"/>
		<path fill="#f8f6f1" d="M1182.7,945.4c0,0,28,144.4,29.1,146.6c1.1,2.2,34-152.6,34-152.6L1182.7,945.4z"/>
		<path fill="#C02530" d="M1211.8,1091.9c0.6,1.2,11.2-46.8,20.4-89.3l-11.4-41.9l-16.3-0.5l-9.7,47
			C1202.5,1046.7,1211.2,1090.7,1211.8,1091.9z"/>
		<polygon fill="#C02530" points="1189.1,950.3 1199.5,955.8 1231.9,955.8 1237.4,945.9 1234.7,941.5 1220.4,947.6 1193.5,945.4 		
			"/>
		<g>
			<path fill="#f8f6f1" d="M1201,918.1l-8.1-1.5c0,0-3.7,2.2-13.2,15.4s-6.6,32.9-6.6,32.9l19-16.8l19,2.9v-28.5L1201,918.1z"/>
			<path fill="#f8f6f1" d="M1227.5,918.1l8.1-1.5c0,0,3.7,2.2,13.2,15.4c9.5,13.2,6.6,32.9,6.6,32.9l-19-16.8l-19,2.9v-28.5
				L1227.5,918.1z"/>
		</g>
		<rect x="1097.4" y="1509.5" fill="#122341" width="84.9" height="60"/>
		<rect x="1258.4" y="1509.5" fill="#122341" width="84.9" height="60"/>
		<g>
			<rect x="754.9" y="1132.6" fill="#3FB1AB" width="858.6" height="408.4"/>
			<g>
				<rect x="754" y="1172.8" fill="#3FB1AB" width="65.1" height="434.8"/>
				<rect x="731.3" y="1609.8" fill="#17818C" width="110.5" height="11"/>
				<path fill="#3FB1AB" d="M840,1611.3c-0.2-9.7-8.1-17.6-17.9-17.6h-71c-9.8,0-17.7,7.8-17.9,17.6H840z"/>
			</g>
			<g>
				<rect x="1553.3" y="1172.8" fill="#3FB1AB" width="65.1" height="434.8"/>
				<rect x="1530.6" y="1609.8" fill="#17818C" width="110.5" height="11"/>
				<path fill="#3FB1AB" d="M1639.3,1611.3c-0.2-9.7-8.1-17.6-17.9-17.6h-71c-9.8,0-17.7,7.8-17.9,17.6H1639.3z"/>
			</g>
			<rect x="822.2" y="1132.6" fill="#043854" width="723.9" height="408.4"/>
			<rect x="835.4" y="1132.6" fill="#17818C" width="697.6" height="408.4"/>
			<rect x="721.9" y="1132.6" fill="#3FB1AB" width="924.5" height="50.5"/>
			<rect x="721.9" y="1174.3" fill="#043854" width="924.5" height="8.8"/>
			<rect x="721.9" y="1132.6" fill="#17818C" width="924.5" height="8.8"/>
		</g>
		<g>
			<path fill="#C02530" d="M930.9,1110.8c0,12.7-2.6,23-15.3,23H758.5c-12.7,0-15.3-10.3-15.3-23l0,0c0-12.7,2.6-23,15.3-23h157.1
				C928.3,1087.8,930.9,1098.1,930.9,1110.8L930.9,1110.8z"/>
			<rect x="760.8" y="1087.8" fill="#1F3B51" width="152" height="46"/>
			<rect x="763.4" y="1087.8" fill="#305674" width="146.9" height="46"/>
			<g>
				<g>
					<path fill="#C02530" d="M806.5,1112.6c0,2.5,0,3.9,0.4,4.2c0.3,0.3,0.8,0.4,2.4,0.4c1,0,1.8,0,2.3-0.5c0.2-0.3,0.5-0.8,0.5-1.2
						c0-0.2,0.1-0.3,0.2-0.3c0.1,0,0.2,0.1,0.2,0.3c0,0.2-0.1,1.7-0.3,2.3c-0.1,0.4-0.2,0.5-1.2,0.5c-1.4,0-2.4,0-3.3-0.1
						c-0.9,0-1.6-0.1-2.4-0.1c-0.2,0-0.6,0-1.1,0c-0.5,0-1,0-1.4,0c-0.3,0-0.4-0.1-0.4-0.2c0-0.1,0.1-0.2,0.3-0.2
						c0.3,0,0.5,0,0.7-0.1c0.4-0.1,0.5-0.5,0.6-1.1c0.1-0.8,0.1-2.4,0.1-4.2v-3.5c0-3,0-3.5,0-4.2c0-0.7-0.2-1-0.8-1.1
						c-0.2,0-0.4-0.1-0.6-0.1c-0.2,0-0.3,0-0.3-0.2c0-0.1,0.1-0.2,0.4-0.2c0.9,0,2.2,0.1,2.7,0.1c0.5,0,1.9-0.1,2.7-0.1
						c0.3,0,0.4,0,0.4,0.2c0,0.1-0.1,0.2-0.4,0.2c-0.2,0-0.5,0-0.8,0.1c-0.5,0.1-0.7,0.4-0.7,1.1c0,0.6,0,1.2,0,4.2V1112.6z"/>
					<path fill="#C02530" d="M828.5,1113.2c-0.1,0-0.1,0-0.2,0.2l-1.1,2.8c-0.2,0.5-0.3,1-0.3,1.2c0,0.4,0.2,0.6,0.8,0.6h0.3
						c0.2,0,0.3,0,0.3,0.2c0,0.2-0.1,0.2-0.3,0.2c-0.6,0-1.5-0.1-2.1-0.1c-0.2,0-1.3,0.1-2.3,0.1c-0.3,0-0.4,0-0.4-0.2
						c0-0.1,0.1-0.2,0.2-0.2c0.2,0,0.5,0,0.6,0c0.9-0.1,1.3-0.8,1.7-1.8l4.9-12.3c0.2-0.6,0.4-0.8,0.5-0.8c0.2,0,0.3,0.2,0.5,0.6
						c0.5,1.1,3.6,9.1,4.9,12.1c0.7,1.8,1.3,2,1.7,2.1c0.3,0.1,0.6,0.1,0.8,0.1c0.2,0,0.3,0,0.3,0.2c0,0.2-0.2,0.2-0.9,0.2
						c-0.7,0-2.1,0-3.7,0c-0.4,0-0.6,0-0.6-0.2c0-0.1,0.1-0.2,0.3-0.2c0.1,0,0.3-0.2,0.2-0.5l-1.6-4.2c0-0.1-0.1-0.1-0.2-0.1H828.5z
						 M832.5,1112.2c0.1,0,0.1-0.1,0.1-0.1l-1.8-4.8c0-0.1,0-0.2-0.1-0.2c-0.1,0-0.1,0.1-0.1,0.2l-1.8,4.8c0,0.1,0,0.1,0.1,0.1
						H832.5z"/>
					<path fill="#C02530" d="M851.5,1105.4c-0.2-0.7-0.5-1.2-0.7-1.4c-0.2-0.1-0.6-0.2-0.8-0.2c-0.2,0-0.3,0-0.3-0.2
						c0-0.1,0.2-0.2,0.4-0.2c1,0,2.1,0.1,2.3,0.1c0.2,0,1-0.1,2.2-0.1c0.3,0,0.4,0.1,0.4,0.2c0,0.2-0.2,0.2-0.4,0.2
						c-0.2,0-0.4,0-0.5,0.1c-0.2,0.1-0.2,0.2-0.2,0.4c0,0.3,0.2,0.9,0.4,1.8c0.3,1.3,2.2,7.2,2.5,8.3h0.1l3.8-10.2
						c0.2-0.6,0.3-0.7,0.5-0.7c0.2,0,0.3,0.3,0.6,0.9l4.1,9.9h0.1c0.4-1.3,1.9-6.5,2.6-8.8c0.1-0.5,0.2-0.9,0.2-1.1
						c0-0.3-0.2-0.6-0.9-0.6c-0.2,0-0.3-0.1-0.3-0.2c0-0.1,0.2-0.2,0.5-0.2c1,0,1.9,0.1,2,0.1c0.1,0,1-0.1,1.6-0.1
						c0.2,0,0.4,0,0.4,0.2c0,0.1-0.1,0.2-0.3,0.2c-0.2,0-0.5,0-0.7,0.1c-0.5,0.2-0.7,1-1.1,2.1c-0.9,2.5-3,8.7-3.9,11.7
						c-0.2,0.7-0.3,0.9-0.6,0.9c-0.2,0-0.3-0.2-0.6-1l-4.1-9.8h0c-0.4,1-3,7.9-3.8,9.7c-0.4,0.8-0.5,1-0.7,1c-0.2,0-0.3-0.2-0.5-0.7
						L851.5,1105.4z"/>
				</g>
			</g>
		</g>
		<path fill="#E8C287" d="M1062.3,1123v-29.3c0,0,87.1-2.2,139.1,3.7c52,5.9,68.1,26.4,68.1,26.4L1062.3,1123z"/>
		<path fill="#122341" d="M1317.7,965.7c0,0,110.2,80.1,131,107.6c20.9,27.4,13.7,59.3-31.3,54.9c-45-4.4-38.4-25.3-38.4-25.3
			l-64.2-45L1317.7,965.7z"/>
		<path fill="#122341" d="M1396.1,1079.1c0,0-110.5,6.6-120.8,9.5c-10.2,2.9-17.6,26.4-15.4,31.5c2.2,5.1,26.4,13.2,26.4,13.2
			s154.4-2.9,164.7-2.9C1461.2,1130.4,1442.9,1079.9,1396.1,1079.1z"/>
		<path fill="#E8C287" d="M1462.7,1123v-29.3c0,0-87.1-2.2-139.1,3.7c-52,5.9-68.1,26.4-68.1,26.4L1462.7,1123z"/>
		<path fill="#E79B60" d="M1065,1107.8l187.7,4.8C1252.8,1112.5,1143.3,1105.2,1065,1107.8z M1229.8,1102.8
			c-36.3-2-108.5-5.2-164.7-3.4l167.8,4.3C1231.8,1103.4,1230.8,1103.1,1229.8,1102.8z M1244.5,1107.8c-26.9-1.6-114-6.4-179.4-4.2
			l180.3,4.6C1245,1108.1,1244.7,1107.9,1244.5,1107.8z M1065,1111.9l187.7,4.8C1252.8,1116.7,1143.3,1109.4,1065,1111.9z
			 M1062.3,1116.1L1062.3,1116.1l187,4.8C1249.3,1120.8,1140.5,1113.6,1062.3,1116.1z"/>
		<path fill="#E79B60" d="M1281,1107.6c-0.4,0.2-0.8,0.3-1.2,0.5l177-4.5C1394.1,1101.5,1311.4,1105.8,1281,1107.6z M1295.9,1102.6
			c-1.2,0.3-2.3,0.6-3.4,1l164.3-4.2C1402.5,1097.7,1333.3,1100.6,1295.9,1102.6z M1269.1,1116.7l187.7-4.8
			C1378.5,1109.4,1269.1,1116.7,1269.1,1116.7z M1272.5,1120.8l187.7-4.8C1382,1113.5,1272.5,1120.8,1272.5,1120.8z M1270.8,1112.4
			c0,0-0.1,0-0.1,0.1l186.1-4.7C1384.2,1105.4,1284.9,1111.5,1270.8,1112.4z"/>
		<path fill="#C02530" d="M1462.7,1125.6c0,3.4-2.8,6.2-6.2,6.2h-403.3c-3.4,0-6.2-2.8-6.2-6.2l0,0c0-3.4,2.8-6.2,6.2-6.2h403.3
			C1459.9,1119.4,1462.7,1122.2,1462.7,1125.6L1462.7,1125.6z"/>
		<path fill="#C02530" d="M1259.9,1120.1c0,0-5.1-7.3-8.4-8.8c-3.3-1.5,2.9-1.5,8.4-0.7c5.5,0.7,11.7,6.6,11.7,8.4
			C1271.6,1120.8,1259.9,1120.1,1259.9,1120.1z"/>
		<path fill="#016476" d="M1603.5,1109.7c-2.2,2.3-5.6,2.7-7.5,0.9l-43.1-41c-1.9-1.8-1.7-5.2,0.5-7.5l0,0c2.2-2.3,5.6-2.7,7.5-0.9
			l43.1,41C1606,1104,1605.7,1107.4,1603.5,1109.7L1603.5,1109.7z"/>
		<path fill="#13264A" d="M1608,1114c-2.9,3.1-6.1,4.8-7.2,3.9l-22.6-21.5c-1-1,0.6-4.2,3.5-7.3l0,0c2.9-3.1,6.2-4.8,7.2-3.9
			l22.6,21.5C1612.5,1107.6,1610.9,1110.9,1608,1114L1608,1114z"/>
		<path fill="#0C1529" d="M1612,1123.4c0,4.2-3.4,7.7-7.7,7.7h-95.2c-4.2,0-7.7-3.4-7.7-7.7l0,0c0-4.2,3.4-7.7,7.7-7.7h95.2
			C1608.5,1115.7,1612,1119.2,1612,1123.4L1612,1123.4z"/>
		<rect x="1523.7" y="1038.1" fill="#037480" width="54.6" height="70.2"/>
		<g>
			<g>
				<rect x="1522.7" y="1046.8" fill="#13264A" width="56.8" height="1.1"/>
				<rect x="1522.7" y="1049.2" fill="#13264A" width="56.8" height="1.1"/>
				<rect x="1522.7" y="1051.6" fill="#13264A" width="56.8" height="1.1"/>
			</g>
		</g>
		<g>
			<g>
				<rect x="1522.7" y="1093" fill="#13264A" width="56.8" height="1.1"/>
				<rect x="1522.7" y="1095.5" fill="#13264A" width="56.8" height="1.1"/>
				<rect x="1522.7" y="1097.9" fill="#13264A" width="56.8" height="1.1"/>
			</g>
		</g>
		<rect x="1523.7" y="1056.7" fill="#13264A" width="54.6" height="33.1"/>
		<path fill="#13264A" d="M1585.1,1110.8c0,2.6-2.1,4.7-4.7,4.7h-58.7c-2.6,0-4.7-2.1-4.7-4.7l0,0c0-2.6,2.1-4.7,4.7-4.7h58.7
			C1583,1106,1585.1,1108.2,1585.1,1110.8L1585.1,1110.8z"/>
		<path fill="#13264A" d="M1585.1,1034.8c0,2.6-2.1,4.7-4.7,4.7h-58.7c-2.6,0-4.7-2.1-4.7-4.7l0,0c0-2.6,2.1-4.7,4.7-4.7h58.7
			C1583,1030,1585.1,1032.1,1585.1,1034.8L1585.1,1034.8z"/>
		<path fill="#E6B35D" d="M1150.8,848.4c0,13-10.6,23.6-23.6,23.6l0,0c-13,0-23.6-10.6-23.6-23.6V833c0-13,10.6-23.6,23.6-23.6l0,0
			c13,0,23.6,10.6,23.6,23.6V848.4z"/>
		<path fill="#E6B35D" d="M1321,848.4c0,13-10.6,23.6-23.6,23.6l0,0c-13,0-23.6-10.6-23.6-23.6V833c0-13,10.6-23.6,23.6-23.6l0,0
			c13,0,23.6,10.6,23.6,23.6V848.4z"/>
		<path fill="#E6B35D" d="M1220.4,940.8c0,0,4.4,10.2-10.2,10.2c-14.6,0-10.2-10.2-10.2-10.2v-39.5h20.5V940.8z"/>
		<path fill="#8B5E3C" d="M1293.6,841.1c0,46.4-37.6,84-84,84l0,0c-46.4,0-84-37.6-84-84v-60.4c0-46.4,37.6-84,84-84l0,0
			c46.4,0,84,37.6,84,84V841.1z"/>
		<path fill="#231F20" d="M1207.2,900c-6.7,0-13.5-1.2-19.9-4.2c-0.2-0.1-0.3-0.3-0.2-0.5c0.1-0.2,0.3-0.3,0.5-0.2
			c27.3,12.9,62.2-8.5,62.6-8.8c0.2-0.1,0.4-0.1,0.5,0.1c0.1,0.2,0.1,0.4-0.1,0.5C1250.3,887.1,1229.4,900,1207.2,900z"/>
		<g>
			<ellipse fill="#231F20" cx="1248.9" cy="827.3" rx="8.1" ry="13.2"/>
			<ellipse fill="#FFFFFF" cx="1250.8" cy="829.5" rx="4" ry="5.9"/>
		</g>
		<g>
			<ellipse fill="#231F20" cx="1180.5" cy="827.3" rx="8.1" ry="13.2"/>
			<ellipse fill="#FFFFFF" cx="1182.3" cy="829.5" rx="4" ry="5.9"/>
		</g>
		<path fill="#231F20" d="M1120.1,795.1c3.7,9.5,6.6,17.6,6.6,17.6s6.6-19,11-31.5c4.4-12.4,2.9-23.4,2.9-23.4s32.2,11,63.7,13.9
			c31.5,2.9,84.2,9.5,84.2,9.5l5.9,24.9c0,0,7.3-21.2,7.3-31.5c0-10.2,8.8-65.9-35.1-84.2c-43.9-18.3-95.9-13.9-120.8,11
			c0,0-6.6-3.7-16.1,2.9C1097.4,720.5,1116.4,785.6,1120.1,795.1z"/>
		<path fill="#C02530" d="M1198.4,943.2c0,0-2.7,5.4-2.7,8.1c0,2.7,5.8,9,7.2,10.8c1.3,1.8,13.9,0.9,18-1.3c4-2.2,5.4-10.3,5.4-10.3
			l-3.6-7.6C1206.9,938.3,1198.4,943.2,1198.4,943.2z"/>
		<path fill="#f8f6f1" d="M1044.7,1115c0,0-2.7-21.4-28-19.2c-25.3,2.2-35.1,12.6-33.5,23.6C984.9,1130.4,1039.8,1139.7,1044.7,1115
			z"/>
		<path fill="#8B5E3C" d="M1040.9,1133.1c0,0-3.3-25.8-25.8-26.9c-22.5-1.1-55.4,12.6-54.9,22.5c0.5,9.9,47.8,5.5,54.3,5.5
			s7.1-7.1,7.1-7.1s4.9,8.8,11,8.8C1038.7,1135.8,1040.9,1133.1,1040.9,1133.1z"/>
		<path fill="#122341" d="M1175,1590c0,0-4.4-27.8-32.2-27.8c-27.8,0-71.7,4.4-71.7,29.3c0,0,13.2,13.2,48.3,13.2
			C1154.5,1604.7,1175,1590,1175,1590z"/>
		<path fill="#122341" d="M1257,1590c0,0,4.4-27.8,32.2-27.8c27.8,0,71.7,4.4,71.7,29.3c0,0-13.2,13.2-48.3,13.2
			C1277.5,1604.7,1257,1590,1257,1590z"/>
		<path fill="#f8f6f1" d="M1387.8,757.8c-22-20.8-35.7-50.3-35.7-82.9c0-63.1,51.1-114.2,114.2-114.2s114.2,51.1,114.2,114.2
			s-51.1,114.2-114.2,114.2c-15,0-29.3-2.9-42.5-8.2l-71.8,42.7L1387.8,757.8z"/>
		<g>
			<path fill="#1e3a5f" d="M1512.1,727.3c0,2.4-2,4.4-4.4,4.4h-82.9c-2.4,0-4.4-2-4.4-4.4l0,0c0-2.4,2-4.4,4.4-4.4h82.9
				C1510.1,722.9,1512.1,724.8,1512.1,727.3L1512.1,727.3z"/>
			<path fill="#1e3a5f" d="M1489,603.2c0,1.2-1,2.2-2.2,2.2h-41.2c-1.2,0-2.2-1-2.2-2.2l0,0c0-1.2,1-2.2,2.2-2.2h41.2
				C1488,601,1489,602,1489,603.2L1489,603.2z"/>
			<rect x="1464" y="597.2" fill="#1e3a5f" width="4.4" height="127.9"/>
			<g>
				<g>
					<path fill="#1e3a5f" d="M1393.6,633.9c0-1.2,1-2.2,2.2-2.2l0,0c0,0,2.2,0,18.7,0l0,0c7,0.1,20.1-7.3,30.8-15l0,0
						c10.8-7.6,19.5-15.2,19.5-15.2l0,0h0c0.9-0.8,2.3-0.7,3.1,0.2l0,0c0.8,0.9,0.7,2.3-0.2,3.1l0,0c-0.3,0-34.8,30.9-53.2,31.3l0,0
						c-16.5,0-18.6,0-18.7,0l0,0C1394.6,636.1,1393.6,635.2,1393.6,633.9L1393.6,633.9z"/>
				</g>
				<g>
					<path fill="#1e3a5f" d="M1378.7,681c0,0.2,0,0.4,0,0.6c0,2.7,0.9,4.9,1.9,4.9h36.3c1.1,0,1.9-2.2,1.9-4.9c0-0.2,0-0.4,0-0.6
						H1378.7z"/>
				</g>
				<g>
					<path fill="#1e3a5f" d="M1381.4,684.3c-0.4,0-0.7-0.2-0.9-0.5l0,0c-0.2-0.3-0.3-0.7-0.1-1l0,0l18.3-47.9c0.2-0.4,0.6-0.7,1-0.7
						l0,0c0.5,0,0.9,0.3,1,0.7l0,0l16.8,47.9c0.1,0.3,0.1,0.7-0.1,1l0,0c-0.2,0.3-0.5,0.5-0.9,0.5l0,0H1381.4L1381.4,684.3z
						 M1382.9,682.1h32l-15.3-43.7L1382.9,682.1L1382.9,682.1z M1398.6,635.6l1-0.4L1398.6,635.6L1398.6,635.6z"/>
				</g>
			</g>
			<g>
				<g>
					<path fill="#1e3a5f" d="M1539.1,633.9c0-1.2-1-2.2-2.2-2.2l0,0c0,0-2.2,0-18.7,0l0,0c-7,0.1-20.1-7.3-30.8-15l0,0
						c-10.8-7.6-19.5-15.2-19.5-15.2l0,0h0c-0.9-0.8-2.3-0.7-3.1,0.2l0,0c-0.8,0.9-0.7,2.3,0.2,3.1l0,0c0.3,0,34.8,30.9,53.2,31.3
						l0,0c16.5,0,18.6,0,18.7,0l0,0C1538.1,636.1,1539.1,635.2,1539.1,633.9L1539.1,633.9z"/>
				</g>
				<g>
					<path fill="#1e3a5f" d="M1554,681c0,0.2,0,0.4,0,0.6c0,2.7-0.9,4.9-1.9,4.9h-36.3c-1.1,0-1.9-2.2-1.9-4.9c0-0.2,0-0.4,0-0.6
						H1554z"/>
				</g>
				<g>
					<path fill="#1e3a5f" d="M1551.3,684.3h-35.1l0,0c-0.4,0-0.7-0.2-0.9-0.5l0,0c-0.2-0.3-0.3-0.7-0.1-1l16.8-47.9l0,0
						c0.2-0.4,0.6-0.7,1-0.7l0,0c0.5,0,0.9,0.3,1,0.7l18.3,47.9l0,0c0.1,0.3,0.1,0.7-0.1,1l0,0
						C1552,684.1,1551.7,684.3,1551.3,684.3L1551.3,684.3z M1549.7,682.1l-16.7-43.7l-15.3,43.7H1549.7L1549.7,682.1z M1534.1,635.6
						l-1-0.4L1534.1,635.6L1534.1,635.6z"/>
				</g>
			</g>
		</g>
		<g>
			<circle fill="#1e3a5f" cx="1175.8" cy="319.9" r="99.7"/>
			<g>
				<g>
					<circle fill="#f8f6f1" cx="1175.8" cy="319.9" r="81.5"/>
				</g>
			</g>
			<circle fill="#1e3a5f" cx="1175.8" cy="319.9" r="7.8"/>
			<rect x="1174.1" y="273" fill="#1e3a5f" width="3.5" height="46.8"/>
			
				<rect x="1196.5" y="311.4" transform="matrix(-0.7502 0.6612 -0.6612 -0.7502 2325.4644 -188.0448)" fill="#1e3a5f" width="3.5" height="67.8"/>
			<rect x="1175" y="243.8" fill="#1e3a5f" width="1.8" height="15.3"/>
			<rect x="1236.6" y="319" fill="#1e3a5f" width="15.3" height="1.8"/>
			<rect x="1175" y="380.6" fill="#1e3a5f" width="1.8" height="15.3"/>
			<rect x="1099.8" y="319" fill="#1e3a5f" width="15.3" height="1.8"/>
		</g>
		<ellipse opacity="0.55" fill="#c3d0de"  a:adobe-blending-mode="multiply" cx="525.4" cy="1580.2" rx="125.6" ry="10.9"/>
		<g>
			<g>
				<rect x="519.8" y="947" fill="#14283f" width="11.1" height="515.7"/>
				<path fill="#f8f6f1" d="M525.4,879.4c0,0-44.3,49,0,81.7C569.7,928.4,525.4,879.4,525.4,879.4z"/>
				<path fill="#f8f6f1" d="M590.7,957.3c0,0-66.1,1.6-59.3,56.2C585.6,1023.2,590.7,957.3,590.7,957.3z"/>
				<path fill="#f8f6f1" d="M590.7,1033.8c0,0-66.1,1.6-59.3,56.2C585.6,1099.7,590.7,1033.8,590.7,1033.8z"/>
				<path fill="#f8f6f1" d="M590.7,1110.3c0,0-66.1,1.6-59.3,56.2C585.6,1176.2,590.7,1110.3,590.7,1110.3z"/>
				<path fill="#f8f6f1" d="M590.7,1186.8c0,0-66.1,1.6-59.3,56.2C585.6,1252.7,590.7,1186.8,590.7,1186.8z"/>
				<path fill="#f8f6f1" d="M590.7,1263.3c0,0-66.1,1.6-59.3,56.2C585.6,1329.2,590.7,1263.3,590.7,1263.3z"/>
				<path fill="#f8f6f1" d="M590.7,1339.8c0,0-66.1,1.6-59.3,56.2C585.6,1405.7,590.7,1339.8,590.7,1339.8z"/>
				<path fill="#f8f6f1" d="M459.8,957.3c0,0,66.1,1.6,59.3,56.2C464.9,1023.2,459.8,957.3,459.8,957.3z"/>
				<path fill="#f8f6f1" d="M459.8,1033.8c0,0,66.1,1.6,59.3,56.2C464.9,1099.7,459.8,1033.8,459.8,1033.8z"/>
				<path fill="#f8f6f1" d="M459.8,1110.3c0,0,66.1,1.6,59.3,56.2C464.9,1176.2,459.8,1110.3,459.8,1110.3z"/>
				<path fill="#f8f6f1" d="M459.8,1186.8c0,0,66.1,1.6,59.3,56.2C464.9,1252.7,459.8,1186.8,459.8,1186.8z"/>
				<path fill="#f8f6f1" d="M459.8,1263.3c0,0,66.1,1.6,59.3,56.2C464.9,1329.2,459.8,1263.3,459.8,1263.3z"/>
				<path fill="#f8f6f1" d="M459.8,1339.8c0,0,66.1,1.6,59.3,56.2C464.9,1405.7,459.8,1339.8,459.8,1339.8z"/>
			</g>
			<g>
				<polygon fill="#1e3a5f" points="525.4,1454.1 446.4,1454.1 457.9,1582.4 525.4,1582.4 592.8,1582.4 604.4,1454.1 				"/>
				<rect x="432.4" y="1426.9" fill="#1e3a5f" width="186" height="27.2"/>
				<polygon fill="#f8f6f1" points="446.4,1454.1 447.1,1462.7 603.6,1462.7 604.4,1454.1 525.4,1454.1 				"/>
			</g>
		</g>
	</g>
</g>
</svg>
